<?xml version="1.0" standalone="no"?><!DOCTYPE svg PUBLIC "-//W3C//DTD SVG 1.1//EN" "http://www.w3.org/Graphics/SVG/1.1/DTD/svg11.dtd"><svg t="1674125371325" class="icon" viewBox="0 0 1249 1024" version="1.1" xmlns="http://www.w3.org/2000/svg" p-id="4600" xmlns:xlink="http://www.w3.org/1999/xlink" width="243.9453125" height="200"><path d="M1213.13 514.87H882.89V325.69l188.3-145.73v192.69c0 38.68 31.47 70.13 70.15 70.13 38.68 0 70.15-31.45 70.15-70.13 0-15.21-12.34-27.54-27.54-27.54s-27.54 12.34-27.54 27.54c0 8.3-6.76 15.05-15.06 15.05s-15.06-6.74-15.06-15.05V122.51c0-15.21-12.34-27.54-27.54-27.54-8.9 0-16.74 4.3-21.77 10.85l-493.9 382.24-0.35-295.62c0-30.56-24.85-55.41-55.41-55.41h-29.61c-30.56 0-55.41 24.85-55.41 55.41V277c-2.5-0.28-4.95-0.71-7.53-0.71h-186c-137.18 0-248.77 100.64-248.77 224.31v241.2c0 35.83 31.24 64.99 69.63 64.99H122.62c9.29 69.04 68.44 122.49 139.98 122.49 70.72 0 129.32-52.25 139.64-120.14l385.89-2.33c9.31 69.02 68.44 122.47 139.97 122.47 70.69 0 129.27-52.21 139.62-120.06h111.37c21.36 0 36.85-19.49 36.85-46.35V652.48c19-1.47 34.05-17.21 34.05-36.58v-64.18c0.01-20.32-16.52-36.85-36.86-36.85z m-385.32 0H638.45L827.8 368.32v146.55zM527.64 192.49l0.39 337.78v39.69h666.88v27.72H497.55V397.64l0.16-205.51 29.93 0.36zM275.62 415.83c8.48 0 13.99 2.8 16.03 4.47v49.85c-2.04 1.67-7.55 4.47-16.03 4.47h-218c3.76-21.14 11.93-40.98 23.79-58.78h194.21zM262.6 874.2c-47.59 0-86.31-38.73-86.31-86.33 0-47.59 38.72-86.33 86.31-86.33s86.33 38.73 86.33 86.33c-0.01 47.59-38.74 86.33-86.33 86.33z m0-227.74c-65.45 0-120.49 44.77-136.53 105.24h-56.44c-8.57 0-14.54-5.22-14.54-9.9V529.7h220.53c39.88 0 71.12-25.18 71.12-57.33v-54.3c0-32.15-31.24-57.33-71.12-57.33H139.92c31.05-18.5 68.52-29.36 108.86-29.36h185.99c4.57 0 7.13 2.36 7.53 3.48v268.28h0.16V753.8l-42.7 0.26c-15.22-61.67-70.86-107.6-137.16-107.6z m528.97 105.25l-294.02 1.77V652.77h388.77c-46.26 14.34-82.28 51.89-94.75 98.94zM928.1 874.2c-47.59 0-86.31-38.73-86.31-86.33 0-47.59 38.72-86.33 86.31-86.33s86.33 38.73 86.33 86.33c-0.01 47.59-38.74 86.33-86.33 86.33z m137.17-120.06c-11.86-48.18-48.34-86.78-95.4-101.37h190.98v101.37h-95.58z" fill="#333333" p-id="4601"></path></svg>