<?xml version="1.0" standalone="no"?><!DOCTYPE svg PUBLIC "-//W3C//DTD SVG 1.1//EN" "http://www.w3.org/Graphics/SVG/1.1/DTD/svg11.dtd"><svg t="1671136883733" class="icon" viewBox="0 0 1024 1024" version="1.1" xmlns="http://www.w3.org/2000/svg" p-id="11535" xmlns:xlink="http://www.w3.org/1999/xlink" width="200" height="200"><path d="M545.813484 560.418369m-286.276915 0a286.276915 286.276915 0 1 0 572.55383 0 286.276915 286.276915 0 1 0-572.55383 0Z" fill="#25B195" p-id="11536"></path><path d="M501.293279 596.860027c-16.580425 0-29.985875-12.382403-29.985876-27.622283 0-15.275158 13.40545-27.622283 29.985876-27.622283h165.874806c16.580425 0 29.985875 12.347125 29.985875 27.622283 0 15.23988-13.40545 27.622283-29.985875 27.622283H501.293279z" fill="#595857" p-id="11537"></path><path d="M471.307403 395.919385c0-19.04985 12.382403-34.536673 27.657561-34.536672 15.204603 0 27.622283 15.486823 27.622282 34.536672v165.733697c0 19.085128-12.41768 34.536673-27.622282 34.536672-15.275158 0-27.65756-15.980708-27.657561-35.065835v-165.204534z" fill="#595857" p-id="11538"></path><path d="M762.629001 267.685672h-0.105833c-64.981155-64.981155-154.762394-105.197506-253.821614-105.197506-99.165053 0-188.981569 40.21635-253.998002 105.197506-64.981155 64.981155-105.197506 154.797671-105.197506 253.962724 0 99.059221 40.21635 188.875736 105.197506 253.821615v0.105832c64.981155 65.016433 154.797671 105.232783 253.998002 105.232783 99.059221 0 188.875736-40.251628 253.821614-105.232783l0.105833-0.105832c64.981155-64.981155 105.162228-154.762394 105.162228-253.821615 0-99.165053-40.181073-188.981569-105.162228-253.962724z m-39.016916 468.873256c-54.997623 54.927068-131.020636 88.969856-214.910531 88.969856-83.925173 0-159.948186-34.042788-214.910532-89.040411l-0.070555 0.035277c-54.927068-54.997623-88.934578-130.950081-88.934578-214.910531 0-83.925173 34.00751-159.948186 89.005133-214.910532 54.997623-54.997623 130.985358-89.005133 214.910532-89.005133 83.925173 0 159.948186 34.00751 214.910531 88.934578l-0.070555 0.070555c54.997623 54.962345 88.969856 130.950081 88.969856 214.910532 0.035278 83.995728-33.972233 159.983464-88.899301 214.945809zM270.648982 129.609536c11.85324-9.59548 29.20977-7.796328 38.840528 4.056912 9.59548 11.817963 7.831605 29.245048-4.021635 38.875806L198.294829 259.571847c-11.85324 9.630758-29.245048 7.831605-38.875805-4.021635-9.59548-11.85324-7.47883-29.527268 4.37441-39.158025l106.855548-86.782651zM746.718848 129.609536c-11.85324-9.59548-29.245048-7.796328-38.840528 4.056912-9.666035 11.817963-7.831605 29.245048 3.986358 38.875806l107.208323 87.06487c11.817963 9.630758 29.245048 7.831605 38.840528-4.021635 9.59548-11.85324 7.47883-29.527268-4.37441-39.158025l-106.820271-86.817928z" fill="#595857" p-id="11539"></path></svg>