<?xml version="1.0" standalone="no"?><!DOCTYPE svg PUBLIC "-//W3C//DTD SVG 1.1//EN" "http://www.w3.org/Graphics/SVG/1.1/DTD/svg11.dtd"><svg t="1671128052923" class="icon" viewBox="0 0 1024 1024" version="1.1" xmlns="http://www.w3.org/2000/svg" p-id="6710" xmlns:xlink="http://www.w3.org/1999/xlink" width="200" height="200"><path d="M480 64.032c-265.088 0-480 214.912-480 480s214.912 480 480 480 480-214.912 480-480H480v-480z" fill="#3AAD73" p-id="6711"></path><path d="M480 960.032c-229.76 0-416-186.24-416-416s186.24-416 416-416v-64c-265.088 0-480 214.912-480 480s214.912 480 480 480 480-214.912 480-480h-64c0 229.76-186.24 416-416 416z" fill="" p-id="6712"></path><path d="M1024 480.032c0-265.088-214.912-480-480-480v480h480z" fill="#EF4D4D" p-id="6713"></path><path d="M1024 480.032c0-265.088-214.912-480-480-480v64c229.76 0 416 186.24 416 416h64z" fill="" p-id="6714"></path></svg>